<?xml version="1.0" encoding="utf-8"?>
<!-- Generator: Adobe Illustrator 25.0.0, SVG Export Plug-In . SVG Version: 6.00 Build 0)  -->
<svg version="1.1" id="Layer_1" xmlns="http://www.w3.org/2000/svg" xmlns:xlink="http://www.w3.org/1999/xlink" x="0px" y="0px"
	 viewBox="0 0 80 80" style="enable-background:new 0 0 80 80;" xml:space="preserve">
<style type="text/css">
	.st0{fill-rule:evenodd;clip-rule:evenodd;fill:#2DA9E1;}
	.st1{fill-rule:evenodd;clip-rule:evenodd;fill:#EB2429;}
</style>
<g>
	<path class="st0" d="M23.76,41.74l0.04,15.2h-8v-24.5c-0.15-4.08,4.31-5.82,7.11-3.4l13.88,14.14v-5.1h8.23v14.67
		c-0.19,4.08-4.69,5.6-7.15,3.48L23.76,41.74z"/>
	<path class="st0" d="M55.05,47.83v-4.5c8.42-0.11,13.07-3.44,13.26-10.51c-0.19-6.16-4.81-10.17-10.38-10.28H36.44v7.41h19.57
		c4.73,0.45,4.15,5.63,0.12,5.94h-9.03v11.38l0,0v0.57H55.05z"/>
	<path class="st1" d="M40.67,0C54.4,0,66.54,6.69,73.93,16.98C68.31,11.3,58.2,7.52,46.59,7.52c-5.27,0-10.26,0.79-14.65,2.19
		C18.53,13.46,8.69,25.6,8.69,40c0,17.39,14.3,31.46,31.98,31.46c11.19,0,21.07-5.67,26.79-14.22H43.29v-0.11
		c1.85-0.23,3.61-1.78,3.73-4.39v-2.46h23.91v-0.08H80C75.39,67.33,59.55,80,40.67,80C18.22,80,0,62.08,0,40S18.22,0,40.67,0
		L40.67,0z"/>
</g>
</svg>
