<svg id="Layer_1" data-name="Layer 1" xmlns="http://www.w3.org/2000/svg" viewBox="0 0 153.76 61.18"><defs><style>.cls-1{fill:#ff7130;}.cls-2{fill:#fff;}</style></defs><rect class="cls-1" width="61.18" height="61.18" rx="9.39"/><path class="cls-2" d="M47.6,5l-2.5,9.58a1.82,1.82,0,0,1,.53,1.29,1.81,1.81,0,1,1-2.29-1.73L45.74,5H43.06L32.42,41.81h0L31.31,49,31,50.82l-1.72-.74-1.84-.78-1.69-.72.4-1.79,1-4.29-4.4-15.41L19.48,26l-2.09-.69-.63-2.11L13.3,11.54A1.8,1.8,0,0,1,13.72,8a1.81,1.81,0,0,1,1.82,1.8A1.75,1.75,0,0,1,15,11L18.86,23.9,22.14,25l2.09.68.59,2.11,3.16,11,1,3.63-.68,3-.47,2,1.73.74L31,39.16v0L28,28.6l-.54-1.87L21.21,5h-4L19,11.79a1.79,1.79,0,0,1,1.33,1.73,1.81,1.81,0,1,1-3.62,0,1.78,1.78,0,0,1,.54-1.27L15.33,5H7.15L25.06,58.69H39.19L57.18,5Zm-26,39.18A1.78,1.78,0,0,1,22.12,43l-2.67-9.38a1.78,1.78,0,0,1-1.37-1.73A1.81,1.81,0,1,1,21.2,33.1l2.65,9.34a1.8,1.8,0,0,1,1.41,1.74,1.81,1.81,0,1,1-3.62,0Zm20.24-3L38,56.19l-1.75-.45,3.93-15a1.81,1.81,0,1,1,1.75.46Zm3-14.86-4.76,2.24h0L34.77,49.05h0L35,56.75l-1.82,0,0-1.46h0L33,48.87h0l1.63-6.26h0l3.41-13,.59-2.28,2.14-1,4.77-2.23,2.59-9.86a1.78,1.78,0,0,1-.55-1.29,1.81,1.81,0,1,1,2.3,1.74l-2.21,8.42L47,25.32Z" transform="translate(-1.56 -0.68)"/><path class="cls-1" d="M79,17.08v9.14H91.7a2.92,2.92,0,0,1,2.92,2.92v9.12H79V58.72H65.9V5H95.19v12Z" transform="translate(-1.56 -0.68)"/><path class="cls-1" d="M98.34,58.72V5h13.71V46.68H128v12Z" transform="translate(-1.56 -0.68)"/><path class="cls-1" d="M144.81,17.08V58.72H131.1V17.08H120.51V5h34.81v12Z" transform="translate(-1.56 -0.68)"/></svg>